<mxfile host="app.diagrams.net" agent="Mozilla/5.0 (Windows NT 10.0; Win64; x64) AppleWebKit/537.36 (KHTML, like Gecko) Chrome/128.0.0.0 Safari/537.36" version="24.7.10">
  <diagram name="Page-1" id="13e1069c-82ec-6db2-03f1-153e76fe0fe0">
    <mxGraphModel dx="1032" dy="501" grid="1" gridSize="10" guides="1" tooltips="1" connect="1" arrows="1" fold="1" page="1" pageScale="1" pageWidth="1100" pageHeight="850" background="none" math="0" shadow="0">
      <root>
        <mxCell id="0" />
        <mxCell id="1" parent="0" />
        <mxCell id="AtyGMqSUCrH6SP7c8qvr-12" value="&lt;span style=&quot;text-wrap: wrap;&quot;&gt;&lt;u&gt;:KhachHang&lt;/u&gt;&lt;/span&gt;" style="shape=umlActor;verticalLabelPosition=bottom;verticalAlign=top;html=1;" parent="1" vertex="1">
          <mxGeometry x="130" y="80" width="30" height="60" as="geometry" />
        </mxCell>
        <mxCell id="AtyGMqSUCrH6SP7c8qvr-15" value="" style="shape=umlBoundary;whiteSpace=wrap;html=1;" parent="1" vertex="1">
          <mxGeometry x="250" y="80" width="80" height="60" as="geometry" />
        </mxCell>
        <mxCell id="AtyGMqSUCrH6SP7c8qvr-16" value="" style="shape=umlBoundary;whiteSpace=wrap;html=1;" parent="1" vertex="1">
          <mxGeometry x="540" y="80" width="80" height="60" as="geometry" />
        </mxCell>
        <mxCell id="AtyGMqSUCrH6SP7c8qvr-17" value="" style="shape=umlBoundary;whiteSpace=wrap;html=1;" parent="1" vertex="1">
          <mxGeometry x="410" y="80" width="80" height="60" as="geometry" />
        </mxCell>
        <mxCell id="AtyGMqSUCrH6SP7c8qvr-18" value="" style="ellipse;shape=umlControl;whiteSpace=wrap;html=1;" parent="1" vertex="1">
          <mxGeometry x="690" y="70" width="60" height="70" as="geometry" />
        </mxCell>
        <mxCell id="AtyGMqSUCrH6SP7c8qvr-19" value="" style="ellipse;shape=umlEntity;whiteSpace=wrap;html=1;" parent="1" vertex="1">
          <mxGeometry x="840" y="80" width="60" height="60" as="geometry" />
        </mxCell>
        <mxCell id="AtyGMqSUCrH6SP7c8qvr-20" value="" style="ellipse;shape=umlEntity;whiteSpace=wrap;html=1;" parent="1" vertex="1">
          <mxGeometry x="980" y="80" width="60" height="60" as="geometry" />
        </mxCell>
        <mxCell id="AtyGMqSUCrH6SP7c8qvr-21" value="&lt;u&gt;:XacNhanDangNhap&lt;/u&gt;" style="text;html=1;align=center;verticalAlign=middle;whiteSpace=wrap;rounded=0;" parent="1" vertex="1">
          <mxGeometry x="260" y="140" width="60" height="30" as="geometry" />
        </mxCell>
        <mxCell id="AtyGMqSUCrH6SP7c8qvr-22" value="&lt;u&gt;:QLThueNha&lt;/u&gt;" style="text;html=1;align=center;verticalAlign=middle;whiteSpace=wrap;rounded=0;" parent="1" vertex="1">
          <mxGeometry x="420" y="140" width="60" height="30" as="geometry" />
        </mxCell>
        <mxCell id="AtyGMqSUCrH6SP7c8qvr-23" value="&lt;u&gt;:NhaTro&lt;/u&gt;" style="text;html=1;align=center;verticalAlign=middle;whiteSpace=wrap;rounded=0;" parent="1" vertex="1">
          <mxGeometry x="550" y="140" width="60" height="30" as="geometry" />
        </mxCell>
        <mxCell id="AtyGMqSUCrH6SP7c8qvr-24" value="&lt;u&gt;:QLThueNha&lt;/u&gt;" style="text;html=1;align=center;verticalAlign=middle;whiteSpace=wrap;rounded=0;" parent="1" vertex="1">
          <mxGeometry x="690" y="140" width="60" height="30" as="geometry" />
        </mxCell>
        <mxCell id="AtyGMqSUCrH6SP7c8qvr-25" value="&lt;u&gt;:NhaTro&lt;/u&gt;" style="text;html=1;align=center;verticalAlign=middle;whiteSpace=wrap;rounded=0;" parent="1" vertex="1">
          <mxGeometry x="840" y="140" width="60" height="30" as="geometry" />
        </mxCell>
        <mxCell id="AtyGMqSUCrH6SP7c8qvr-26" value="&lt;u&gt;:HopDong&lt;/u&gt;" style="text;html=1;align=center;verticalAlign=middle;whiteSpace=wrap;rounded=0;" parent="1" vertex="1">
          <mxGeometry x="980" y="140" width="60" height="30" as="geometry" />
        </mxCell>
        <mxCell id="AtyGMqSUCrH6SP7c8qvr-27" value="" style="endArrow=none;dashed=1;html=1;rounded=0;" parent="1" source="AtyGMqSUCrH6SP7c8qvr-28" edge="1">
          <mxGeometry width="50" height="50" relative="1" as="geometry">
            <mxPoint x="145" y="530" as="sourcePoint" />
            <mxPoint x="144.66000000000003" y="190" as="targetPoint" />
          </mxGeometry>
        </mxCell>
        <mxCell id="AtyGMqSUCrH6SP7c8qvr-29" value="" style="endArrow=none;dashed=1;html=1;rounded=0;" parent="1" edge="1">
          <mxGeometry width="50" height="50" relative="1" as="geometry">
            <mxPoint x="145" y="640" as="sourcePoint" />
            <mxPoint x="144.5" y="490" as="targetPoint" />
          </mxGeometry>
        </mxCell>
        <mxCell id="AtyGMqSUCrH6SP7c8qvr-28" value="" style="html=1;points=[[0,0,0,0,5],[0,1,0,0,-5],[1,0,0,0,5],[1,1,0,0,-5]];perimeter=orthogonalPerimeter;outlineConnect=0;targetShapes=umlLifeline;portConstraint=eastwest;newEdgeStyle={&quot;curved&quot;:0,&quot;rounded&quot;:0};" parent="1" vertex="1">
          <mxGeometry x="140" y="200" width="10" height="430" as="geometry" />
        </mxCell>
        <mxCell id="AtyGMqSUCrH6SP7c8qvr-31" value="" style="endArrow=none;dashed=1;html=1;rounded=0;" parent="1" source="AtyGMqSUCrH6SP7c8qvr-30" edge="1">
          <mxGeometry width="50" height="50" relative="1" as="geometry">
            <mxPoint x="280" y="520" as="sourcePoint" />
            <mxPoint x="275" y="190" as="targetPoint" />
          </mxGeometry>
        </mxCell>
        <mxCell id="AtyGMqSUCrH6SP7c8qvr-32" value="" style="endArrow=none;dashed=1;html=1;rounded=0;" parent="1" target="AtyGMqSUCrH6SP7c8qvr-30" edge="1">
          <mxGeometry width="50" height="50" relative="1" as="geometry">
            <mxPoint x="275" y="640" as="sourcePoint" />
            <mxPoint x="280" y="190" as="targetPoint" />
            <Array as="points">
              <mxPoint x="275" y="640" />
            </Array>
          </mxGeometry>
        </mxCell>
        <mxCell id="AtyGMqSUCrH6SP7c8qvr-30" value="" style="html=1;points=[[0,0,0,0,5],[0,1,0,0,-5],[1,0,0,0,5],[1,1,0,0,-5]];perimeter=orthogonalPerimeter;outlineConnect=0;targetShapes=umlLifeline;portConstraint=eastwest;newEdgeStyle={&quot;curved&quot;:0,&quot;rounded&quot;:0};" parent="1" vertex="1">
          <mxGeometry x="270" y="200" width="10" height="110" as="geometry" />
        </mxCell>
        <mxCell id="AtyGMqSUCrH6SP7c8qvr-33" value="" style="endArrow=none;dashed=1;html=1;rounded=0;" parent="1" source="w88vAQ4TIiE6wHDEC62M-26" edge="1">
          <mxGeometry width="50" height="50" relative="1" as="geometry">
            <mxPoint x="450" y="520" as="sourcePoint" />
            <mxPoint x="449.66" y="190" as="targetPoint" />
          </mxGeometry>
        </mxCell>
        <mxCell id="AtyGMqSUCrH6SP7c8qvr-34" value="" style="endArrow=none;dashed=1;html=1;rounded=0;" parent="1" source="w88vAQ4TIiE6wHDEC62M-10" edge="1">
          <mxGeometry width="50" height="50" relative="1" as="geometry">
            <mxPoint x="580" y="520" as="sourcePoint" />
            <mxPoint x="579.6600000000001" y="190" as="targetPoint" />
          </mxGeometry>
        </mxCell>
        <mxCell id="AtyGMqSUCrH6SP7c8qvr-35" value="" style="endArrow=none;dashed=1;html=1;rounded=0;" parent="1" edge="1">
          <mxGeometry width="50" height="50" relative="1" as="geometry">
            <mxPoint x="719.6600000000001" y="210" as="sourcePoint" />
            <mxPoint x="719.6600000000001" y="190" as="targetPoint" />
          </mxGeometry>
        </mxCell>
        <mxCell id="AtyGMqSUCrH6SP7c8qvr-36" value="" style="endArrow=none;dashed=1;html=1;rounded=0;" parent="1" source="w88vAQ4TIiE6wHDEC62M-17" edge="1">
          <mxGeometry width="50" height="50" relative="1" as="geometry">
            <mxPoint x="870" y="520" as="sourcePoint" />
            <mxPoint x="869.6600000000001" y="190" as="targetPoint" />
          </mxGeometry>
        </mxCell>
        <mxCell id="AtyGMqSUCrH6SP7c8qvr-37" value="" style="endArrow=none;dashed=1;html=1;rounded=0;" parent="1" edge="1">
          <mxGeometry width="50" height="50" relative="1" as="geometry">
            <mxPoint x="1010" y="640" as="sourcePoint" />
            <mxPoint x="1009.6600000000001" y="190" as="targetPoint" />
          </mxGeometry>
        </mxCell>
        <mxCell id="AtyGMqSUCrH6SP7c8qvr-38" value="" style="endArrow=none;dashed=1;html=1;rounded=0;" parent="1" source="w88vAQ4TIiE6wHDEC62M-30" edge="1">
          <mxGeometry width="50" height="50" relative="1" as="geometry">
            <mxPoint x="720" y="600" as="sourcePoint" />
            <mxPoint x="720" y="480" as="targetPoint" />
          </mxGeometry>
        </mxCell>
        <mxCell id="AtyGMqSUCrH6SP7c8qvr-39" value="1: DangNhap" style="html=1;verticalAlign=bottom;endArrow=block;curved=0;rounded=0;exitX=1;exitY=0.034;exitDx=0;exitDy=0;exitPerimeter=0;" parent="1" source="AtyGMqSUCrH6SP7c8qvr-28" target="AtyGMqSUCrH6SP7c8qvr-30" edge="1">
          <mxGeometry width="80" relative="1" as="geometry">
            <mxPoint x="160" y="210" as="sourcePoint" />
            <mxPoint x="240" y="210" as="targetPoint" />
          </mxGeometry>
        </mxCell>
        <mxCell id="AtyGMqSUCrH6SP7c8qvr-40" value="2: KiemTraMatKhau" style="html=1;verticalAlign=bottom;endArrow=block;curved=0;rounded=0;" parent="1" source="AtyGMqSUCrH6SP7c8qvr-30" target="AtyGMqSUCrH6SP7c8qvr-30" edge="1">
          <mxGeometry x="-0.1429" y="-10" width="80" relative="1" as="geometry">
            <mxPoint x="280" y="220" as="sourcePoint" />
            <mxPoint x="400" y="220" as="targetPoint" />
            <Array as="points">
              <mxPoint x="340" y="260" />
            </Array>
            <mxPoint x="10" y="-10" as="offset" />
          </mxGeometry>
        </mxCell>
        <mxCell id="AtyGMqSUCrH6SP7c8qvr-42" value="3: HienThi" style="html=1;verticalAlign=bottom;endArrow=block;curved=0;rounded=0;" parent="1" edge="1">
          <mxGeometry width="80" relative="1" as="geometry">
            <mxPoint x="280" y="290" as="sourcePoint" />
            <mxPoint x="445" y="290" as="targetPoint" />
          </mxGeometry>
        </mxCell>
        <mxCell id="AtyGMqSUCrH6SP7c8qvr-43" value="" style="html=1;points=[[0,0,0,0,5],[0,1,0,0,-5],[1,0,0,0,5],[1,1,0,0,-5]];perimeter=orthogonalPerimeter;outlineConnect=0;targetShapes=umlLifeline;portConstraint=eastwest;newEdgeStyle={&quot;curved&quot;:0,&quot;rounded&quot;:0};" parent="1" vertex="1">
          <mxGeometry x="445" y="210" width="10" height="120" as="geometry" />
        </mxCell>
        <mxCell id="AtyGMqSUCrH6SP7c8qvr-44" value="4: XemDsNhaTrong" style="html=1;verticalAlign=bottom;endArrow=block;curved=0;rounded=0;" parent="1" source="AtyGMqSUCrH6SP7c8qvr-28" target="AtyGMqSUCrH6SP7c8qvr-43" edge="1">
          <mxGeometry width="80" relative="1" as="geometry">
            <mxPoint x="160" y="350" as="sourcePoint" />
            <mxPoint x="280" y="350" as="targetPoint" />
          </mxGeometry>
        </mxCell>
        <mxCell id="AtyGMqSUCrH6SP7c8qvr-46" value="5: LayDsNhaTrong" style="html=1;verticalAlign=bottom;endArrow=block;curved=0;rounded=0;entryX=0.18;entryY=0.647;entryDx=0;entryDy=0;entryPerimeter=0;" parent="1" edge="1">
          <mxGeometry width="80" relative="1" as="geometry">
            <mxPoint x="453.20000000000005" y="229.99999999999994" as="sourcePoint" />
            <mxPoint x="715.0000000000002" y="229.99999999999994" as="targetPoint" />
          </mxGeometry>
        </mxCell>
        <mxCell id="w88vAQ4TIiE6wHDEC62M-1" value="6: LayThongTinNha" style="html=1;verticalAlign=bottom;endArrow=block;curved=0;rounded=0;" parent="1" source="w88vAQ4TIiE6wHDEC62M-14" target="w88vAQ4TIiE6wHDEC62M-17" edge="1">
          <mxGeometry width="80" relative="1" as="geometry">
            <mxPoint x="725" y="250" as="sourcePoint" />
            <mxPoint x="870" y="250" as="targetPoint" />
          </mxGeometry>
        </mxCell>
        <mxCell id="w88vAQ4TIiE6wHDEC62M-5" value="7: KetQua" style="html=1;verticalAlign=bottom;endArrow=block;curved=0;rounded=0;dashed=1;" parent="1" edge="1">
          <mxGeometry width="80" relative="1" as="geometry">
            <mxPoint x="870" y="290" as="sourcePoint" />
            <mxPoint x="725" y="290" as="targetPoint" />
          </mxGeometry>
        </mxCell>
        <mxCell id="w88vAQ4TIiE6wHDEC62M-6" value="8: HienThiDSNhaTrong" style="html=1;verticalAlign=bottom;endArrow=block;curved=0;rounded=0;" parent="1" edge="1">
          <mxGeometry width="80" relative="1" as="geometry">
            <mxPoint x="715" y="270" as="sourcePoint" />
            <mxPoint x="455" y="270" as="targetPoint" />
          </mxGeometry>
        </mxCell>
        <mxCell id="w88vAQ4TIiE6wHDEC62M-7" value="9: ChonNha" style="html=1;verticalAlign=bottom;endArrow=block;curved=0;rounded=0;" parent="1" edge="1">
          <mxGeometry width="80" relative="1" as="geometry">
            <mxPoint x="150" y="410" as="sourcePoint" />
            <mxPoint x="445" y="410" as="targetPoint" />
          </mxGeometry>
        </mxCell>
        <mxCell id="w88vAQ4TIiE6wHDEC62M-8" value="10: ChonNha" style="html=1;verticalAlign=bottom;endArrow=block;curved=0;rounded=0;" parent="1" target="w88vAQ4TIiE6wHDEC62M-10" edge="1">
          <mxGeometry width="80" relative="1" as="geometry">
            <mxPoint x="455" y="430" as="sourcePoint" />
            <mxPoint x="720" y="430" as="targetPoint" />
          </mxGeometry>
        </mxCell>
        <mxCell id="w88vAQ4TIiE6wHDEC62M-9" value="12: TimKiemNha" style="html=1;verticalAlign=bottom;endArrow=block;curved=0;rounded=0;" parent="1" edge="1">
          <mxGeometry width="80" relative="1" as="geometry">
            <mxPoint x="725" y="370" as="sourcePoint" />
            <mxPoint x="865" y="370" as="targetPoint" />
          </mxGeometry>
        </mxCell>
        <mxCell id="w88vAQ4TIiE6wHDEC62M-11" value="" style="endArrow=none;dashed=1;html=1;rounded=0;" parent="1" target="w88vAQ4TIiE6wHDEC62M-10" edge="1">
          <mxGeometry width="50" height="50" relative="1" as="geometry">
            <mxPoint x="580" y="640" as="sourcePoint" />
            <mxPoint x="579.6600000000001" y="190" as="targetPoint" />
          </mxGeometry>
        </mxCell>
        <mxCell id="w88vAQ4TIiE6wHDEC62M-10" value="" style="html=1;points=[];perimeter=orthogonalPerimeter;rounded=0;shadow=0;comic=0;labelBackgroundColor=none;strokeWidth=1;fontFamily=Verdana;fontSize=12;align=center;" parent="1" vertex="1">
          <mxGeometry x="575" y="390" width="10" height="70" as="geometry" />
        </mxCell>
        <mxCell id="w88vAQ4TIiE6wHDEC62M-12" value="11: TimKiemNha" style="html=1;verticalAlign=bottom;endArrow=block;curved=0;rounded=0;" parent="1" edge="1">
          <mxGeometry width="80" relative="1" as="geometry">
            <mxPoint x="585" y="444.65999999999997" as="sourcePoint" />
            <mxPoint x="715" y="444.65999999999997" as="targetPoint" />
          </mxGeometry>
        </mxCell>
        <mxCell id="w88vAQ4TIiE6wHDEC62M-13" value="13: KetQua" style="html=1;verticalAlign=bottom;endArrow=block;curved=0;rounded=0;dashed=1;" parent="1" edge="1">
          <mxGeometry width="80" relative="1" as="geometry">
            <mxPoint x="865" y="400" as="sourcePoint" />
            <mxPoint x="725" y="400" as="targetPoint" />
          </mxGeometry>
        </mxCell>
        <mxCell id="w88vAQ4TIiE6wHDEC62M-15" value="" style="html=1;verticalAlign=bottom;endArrow=block;curved=0;rounded=0;" parent="1" target="w88vAQ4TIiE6wHDEC62M-14" edge="1">
          <mxGeometry width="80" relative="1" as="geometry">
            <mxPoint x="725" y="250" as="sourcePoint" />
            <mxPoint x="870" y="250" as="targetPoint" />
          </mxGeometry>
        </mxCell>
        <mxCell id="w88vAQ4TIiE6wHDEC62M-14" value="" style="html=1;points=[[0,0,0,0,5],[0,1,0,0,-5],[1,0,0,0,5],[1,1,0,0,-5]];perimeter=orthogonalPerimeter;outlineConnect=0;targetShapes=umlLifeline;portConstraint=eastwest;newEdgeStyle={&quot;curved&quot;:0,&quot;rounded&quot;:0};" parent="1" vertex="1">
          <mxGeometry x="715" y="210" width="10" height="100" as="geometry" />
        </mxCell>
        <mxCell id="w88vAQ4TIiE6wHDEC62M-16" value="" style="html=1;points=[[0,0,0,0,5],[0,1,0,0,-5],[1,0,0,0,5],[1,1,0,0,-5]];perimeter=orthogonalPerimeter;outlineConnect=0;targetShapes=umlLifeline;portConstraint=eastwest;newEdgeStyle={&quot;curved&quot;:0,&quot;rounded&quot;:0};" parent="1" vertex="1">
          <mxGeometry x="715" y="340" width="10" height="170" as="geometry" />
        </mxCell>
        <mxCell id="w88vAQ4TIiE6wHDEC62M-18" value="" style="endArrow=none;dashed=1;html=1;rounded=0;" parent="1" target="w88vAQ4TIiE6wHDEC62M-17" edge="1">
          <mxGeometry width="50" height="50" relative="1" as="geometry">
            <mxPoint x="870" y="640" as="sourcePoint" />
            <mxPoint x="869.6600000000001" y="190" as="targetPoint" />
          </mxGeometry>
        </mxCell>
        <mxCell id="w88vAQ4TIiE6wHDEC62M-17" value="" style="html=1;points=[[0,0,0,0,5],[0,1,0,0,-5],[1,0,0,0,5],[1,1,0,0,-5]];perimeter=orthogonalPerimeter;outlineConnect=0;targetShapes=umlLifeline;portConstraint=eastwest;newEdgeStyle={&quot;curved&quot;:0,&quot;rounded&quot;:0};" parent="1" vertex="1">
          <mxGeometry x="865" y="240" width="10" height="70" as="geometry" />
        </mxCell>
        <mxCell id="w88vAQ4TIiE6wHDEC62M-21" value="" style="html=1;points=[[0,0,0,0,5],[0,1,0,0,-5],[1,0,0,0,5],[1,1,0,0,-5]];perimeter=orthogonalPerimeter;outlineConnect=0;targetShapes=umlLifeline;portConstraint=eastwest;newEdgeStyle={&quot;curved&quot;:0,&quot;rounded&quot;:0};" parent="1" vertex="1">
          <mxGeometry x="865" y="340" width="10" height="160" as="geometry" />
        </mxCell>
        <mxCell id="w88vAQ4TIiE6wHDEC62M-22" value="14: TTNhaTro" style="html=1;verticalAlign=bottom;endArrow=block;curved=0;rounded=0;" parent="1" edge="1">
          <mxGeometry width="80" relative="1" as="geometry">
            <mxPoint x="865" y="424" as="sourcePoint" />
            <mxPoint x="725" y="424" as="targetPoint" />
          </mxGeometry>
        </mxCell>
        <mxCell id="w88vAQ4TIiE6wHDEC62M-24" value="15: HienThi" style="html=1;verticalAlign=bottom;endArrow=block;curved=0;rounded=0;" parent="1" target="w88vAQ4TIiE6wHDEC62M-16" edge="1">
          <mxGeometry x="0.5625" y="20" width="80" relative="1" as="geometry">
            <mxPoint x="725" y="440" as="sourcePoint" />
            <mxPoint x="725" y="510" as="targetPoint" />
            <Array as="points">
              <mxPoint x="780" y="440" />
              <mxPoint x="780" y="490" />
              <mxPoint x="750" y="490" />
            </Array>
            <mxPoint as="offset" />
          </mxGeometry>
        </mxCell>
        <mxCell id="w88vAQ4TIiE6wHDEC62M-25" value="16: XacNhanThueNha" style="html=1;verticalAlign=bottom;endArrow=block;curved=0;rounded=0;" parent="1" edge="1">
          <mxGeometry width="80" relative="1" as="geometry">
            <mxPoint x="150" y="544.5" as="sourcePoint" />
            <mxPoint x="445" y="544.5" as="targetPoint" />
          </mxGeometry>
        </mxCell>
        <mxCell id="w88vAQ4TIiE6wHDEC62M-27" value="" style="endArrow=none;dashed=1;html=1;rounded=0;" parent="1" target="w88vAQ4TIiE6wHDEC62M-26" edge="1">
          <mxGeometry width="50" height="50" relative="1" as="geometry">
            <mxPoint x="450" y="640" as="sourcePoint" />
            <mxPoint x="449.66" y="190" as="targetPoint" />
          </mxGeometry>
        </mxCell>
        <mxCell id="w88vAQ4TIiE6wHDEC62M-26" value="" style="html=1;points=[[0,0,0,0,5],[0,1,0,0,-5],[1,0,0,0,5],[1,1,0,0,-5]];perimeter=orthogonalPerimeter;outlineConnect=0;targetShapes=umlLifeline;portConstraint=eastwest;newEdgeStyle={&quot;curved&quot;:0,&quot;rounded&quot;:0};" parent="1" vertex="1">
          <mxGeometry x="445" y="400" width="10" height="50" as="geometry" />
        </mxCell>
        <mxCell id="w88vAQ4TIiE6wHDEC62M-28" value="" style="html=1;points=[[0,0,0,0,5],[0,1,0,0,-5],[1,0,0,0,5],[1,1,0,0,-5]];perimeter=orthogonalPerimeter;outlineConnect=0;targetShapes=umlLifeline;portConstraint=eastwest;newEdgeStyle={&quot;curved&quot;:0,&quot;rounded&quot;:0};" parent="1" vertex="1">
          <mxGeometry x="445" y="520" width="10" height="50" as="geometry" />
        </mxCell>
        <mxCell id="w88vAQ4TIiE6wHDEC62M-31" value="" style="endArrow=none;dashed=1;html=1;rounded=0;" parent="1" target="w88vAQ4TIiE6wHDEC62M-30" edge="1">
          <mxGeometry width="50" height="50" relative="1" as="geometry">
            <mxPoint x="720" y="640" as="sourcePoint" />
            <mxPoint x="720" y="480" as="targetPoint" />
          </mxGeometry>
        </mxCell>
        <mxCell id="w88vAQ4TIiE6wHDEC62M-30" value="" style="html=1;points=[[0,0,0,0,5],[0,1,0,0,-5],[1,0,0,0,5],[1,1,0,0,-5]];perimeter=orthogonalPerimeter;outlineConnect=0;targetShapes=umlLifeline;portConstraint=eastwest;newEdgeStyle={&quot;curved&quot;:0,&quot;rounded&quot;:0};" parent="1" vertex="1">
          <mxGeometry x="715" y="530" width="10" height="100" as="geometry" />
        </mxCell>
        <mxCell id="w88vAQ4TIiE6wHDEC62M-32" value="17: XacNhanThueNha" style="html=1;verticalAlign=bottom;endArrow=block;curved=0;rounded=0;" parent="1" target="w88vAQ4TIiE6wHDEC62M-30" edge="1">
          <mxGeometry width="80" relative="1" as="geometry">
            <mxPoint x="455" y="554.5" as="sourcePoint" />
            <mxPoint x="720" y="555" as="targetPoint" />
          </mxGeometry>
        </mxCell>
        <mxCell id="w88vAQ4TIiE6wHDEC62M-33" value="18: LapHopDongThueNha" style="html=1;verticalAlign=bottom;endArrow=block;curved=0;rounded=0;" parent="1" target="w88vAQ4TIiE6wHDEC62M-34" edge="1">
          <mxGeometry width="80" relative="1" as="geometry">
            <mxPoint x="725" y="570" as="sourcePoint" />
            <mxPoint x="1020" y="570" as="targetPoint" />
          </mxGeometry>
        </mxCell>
        <mxCell id="w88vAQ4TIiE6wHDEC62M-34" value="" style="html=1;points=[[0,0,0,0,5],[0,1,0,0,-5],[1,0,0,0,5],[1,1,0,0,-5]];perimeter=orthogonalPerimeter;outlineConnect=0;targetShapes=umlLifeline;portConstraint=eastwest;newEdgeStyle={&quot;curved&quot;:0,&quot;rounded&quot;:0};" parent="1" vertex="1">
          <mxGeometry x="1005" y="530" width="10" height="80" as="geometry" />
        </mxCell>
        <mxCell id="w88vAQ4TIiE6wHDEC62M-36" value="19: BanGiaoPhong" style="html=1;verticalAlign=bottom;endArrow=block;curved=0;rounded=0;" parent="1" edge="1">
          <mxGeometry x="0.1858" width="80" relative="1" as="geometry">
            <mxPoint x="715" y="579" as="sourcePoint" />
            <mxPoint x="150" y="579" as="targetPoint" />
            <mxPoint as="offset" />
          </mxGeometry>
        </mxCell>
        <mxCell id="zZ_C6hzXjl9TybSvvcfo-1" value="20: ThongTinHopDong" style="html=1;verticalAlign=bottom;endArrow=block;curved=0;rounded=0;" edge="1" parent="1">
          <mxGeometry width="80" relative="1" as="geometry">
            <mxPoint x="1005" y="600" as="sourcePoint" />
            <mxPoint x="725" y="600" as="targetPoint" />
          </mxGeometry>
        </mxCell>
        <mxCell id="zZ_C6hzXjl9TybSvvcfo-2" value="21: GiaHanHopDong" style="html=1;verticalAlign=bottom;endArrow=block;curved=0;rounded=0;entryX=1;entryY=1;entryDx=0;entryDy=-5;entryPerimeter=0;" edge="1" parent="1" source="w88vAQ4TIiE6wHDEC62M-30">
          <mxGeometry x="0.1858" width="80" relative="1" as="geometry">
            <mxPoint x="680" y="610" as="sourcePoint" />
            <mxPoint x="150" y="615" as="targetPoint" />
            <mxPoint as="offset" />
          </mxGeometry>
        </mxCell>
      </root>
    </mxGraphModel>
  </diagram>
</mxfile>
